<svg width="124" height="31" viewBox="0 0 124 31" fill="none" xmlns="http://www.w3.org/2000/svg">
<path d="M12.2261 2.68558C14.5385 2.68558 16.5431 3.06986 18.2397 3.83617C19.9409 4.59799 21.2533 5.6879 22.1769 7.10816C23.105 8.52842 23.5702 10.2004 23.5702 12.124C23.5702 14.0432 23.105 15.7061 22.1769 17.1129C21.2533 18.5219 19.9409 19.6096 18.2397 20.3759C16.5431 21.1445 14.5385 21.5265 12.2261 21.5265H7.78554V28.1963H0.567383V2.68558H12.2261ZM11.7946 15.8365C13.2733 15.8365 14.3924 15.5174 15.1475 14.8746C15.9026 14.2274 16.2801 13.3106 16.2801 12.124C16.2801 10.933 15.9026 10.0094 15.1475 9.35541C14.3924 8.69696 13.2733 8.36662 11.7946 8.36662H7.78554V15.8365H11.7946Z" fill="white"/>
<path d="M47.9846 2.68558V28.1963H40.7754V18.2455H30.9325V28.1963H23.7143V2.68558H30.9325V12.2678H40.7754V2.68558H47.9846Z" fill="white"/>
<path d="M82.3854 8.40257H74.547V2.68558H97.406V8.40257H89.6036V28.1963H82.3854V8.40257Z" fill="white"/>
<path d="M109.248 28.7087C106.551 28.7087 104.127 28.1402 101.976 27.0008C99.8231 25.857 98.1331 24.2749 96.9061 22.2546C95.6836 20.2366 95.0724 17.9646 95.0724 15.441C95.0724 12.9128 95.6836 10.6408 96.9061 8.62731C98.1331 6.60928 99.8231 5.02947 101.976 3.89011C104.127 2.74627 106.551 2.17322 109.248 2.17322C111.945 2.17322 114.367 2.74627 116.52 3.89011C118.671 5.02947 120.361 6.60928 121.59 8.62731C122.817 10.6408 123.433 12.9128 123.433 15.441C123.433 17.9646 122.817 20.2366 121.59 22.2546C120.361 24.2749 118.671 25.857 116.52 27.0008C114.367 28.1402 111.945 28.7087 109.248 28.7087ZM109.248 22.731C110.536 22.731 111.702 22.4299 112.745 21.8231C113.792 21.2119 114.619 20.3557 115.226 19.2523C115.837 18.1444 116.143 16.8747 116.143 15.441C116.143 14.0095 115.837 12.742 115.226 11.6386C114.619 10.5307 113.792 9.67453 112.745 9.06777C111.702 8.45652 110.536 8.1509 109.248 8.1509C107.958 8.1509 106.794 8.45652 105.751 9.06777C104.709 9.67453 103.882 10.5307 103.27 11.6386C102.664 12.742 102.362 14.0095 102.362 15.441C102.362 16.8747 102.664 18.1444 103.27 19.2523C103.882 20.3557 104.709 21.2119 105.751 21.8231C106.794 22.4299 107.958 22.731 109.248 22.731Z" fill="white"/>
<mask id="mask0_14_43" style="mask-type:luminance" maskUnits="userSpaceOnUse" x="48" y="6" width="11" height="15">
<path d="M48.2925 6.2608H58.7579V20.0679H48.2925V6.2608Z" fill="white"/>
</mask>
<g mask="url(#mask0_14_43)">
<path d="M58.65 19.578L50.8633 6.65631C49.2318 9.0721 48.2767 11.9823 48.2767 15.1105C48.2767 16.6656 48.5127 18.1645 48.9509 19.578H58.65Z" fill="white"/>
</g>
<mask id="mask1_14_43" style="mask-type:luminance" maskUnits="userSpaceOnUse" x="61" y="0" width="17" height="10">
<path d="M61.6344 -3.05176e-05H77.1674V9.13728H61.6344V-3.05176e-05Z" fill="white"/>
</mask>
<g mask="url(#mask1_14_43)">
<path d="M61.9198 8.69681H77.0955C75.1449 4.55289 71.3695 1.43146 66.8098 0.377502L61.9198 8.69681Z" fill="white"/>
</g>
<mask id="mask2_14_43" style="mask-type:luminance" maskUnits="userSpaceOnUse" x="51" y="0" width="15" height="14">
<path d="M51.8544 -3.05176e-05H65.0862V13.7396H51.8544V-3.05176e-05Z" fill="white"/>
</mask>
<g mask="url(#mask2_14_43)">
<path d="M57.0478 13.3801L64.8772 0.0584121C64.3918 0.01122 63.8996 -0.0157471 63.4007 -0.0157471C58.8905 -0.0157471 54.8387 1.97082 52.0656 5.11247L57.0478 13.3801Z" fill="white"/>
</g>
<mask id="mask3_14_43" style="mask-type:luminance" maskUnits="userSpaceOnUse" x="49" y="21" width="17" height="10">
<path d="M49.5532 21.2185H65.0861V30.2794H49.5532V21.2185Z" fill="white"/>
</mask>
<g mask="url(#mask3_14_43)">
<path d="M60.2029 29.758L64.9918 21.405H49.6543C51.6656 25.7804 55.7039 29.0367 60.5602 29.9625L60.2029 29.758Z" fill="white"/>
</g>
<mask id="mask4_14_43" style="mask-type:luminance" maskUnits="userSpaceOnUse" x="67" y="10" width="12" height="15">
<path d="M67.9626 10.2879H78.5719V24.095H67.9626V10.2879Z" fill="white"/>
</mask>
<g mask="url(#mask4_14_43)">
<path d="M68.1289 10.5238L75.7763 23.7916C77.5067 21.3308 78.5269 18.3398 78.5269 15.1105C78.5269 13.5127 78.2752 11.9711 77.8145 10.5238H68.1289Z" fill="white"/>
</g>
<mask id="mask5_14_43" style="mask-type:luminance" maskUnits="userSpaceOnUse" x="61" y="16" width="14" height="15">
<path d="M61.6344 16.6161H74.8662V30.2794H61.6344V16.6161Z" fill="white"/>
</mask>
<g mask="url(#mask5_14_43)">
<path d="M69.6886 16.8903L62.0726 30.1738C62.5108 30.212 62.9536 30.2344 63.4008 30.2344C67.8076 30.2344 71.7807 28.34 74.5471 25.322L69.6886 16.8903Z" fill="white"/>
</g>
</svg>
